<?xml version="1.0" encoding="UTF-8"?>
<svg id="Layer_1" data-name="Layer 1" xmlns="http://www.w3.org/2000/svg" viewBox="0 0 3357.543 4039.634">
  <defs>
    <style>
      .cls-1 {
        fill: #59bbcd;
      }

      .cls-1, .cls-2, .cls-3, .cls-4 {
        stroke-width: 0px;
      }

      .cls-2 {
        fill: #0197b0;
      }

      .cls-3 {
        fill: #13c0e0;
      }

      .cls-4 {
        fill: #72ccd7;
      }
    </style>
  </defs>
  <path class="cls-1" d="M231.744,2739.813c.547-1.051,1.066-1.082,2.351-1.047,1.481,3.754,2.196,7.445,2.379,12.16-1.937-2.684-3.351-6.387-4.73-11.113h0ZM231.744,2739.813"/>
  <path class="cls-1" d="M242.611,2771.8c2.844.277,3.969,2.34,3.492,6.043-1.473-1.125-2.59-3.149-3.492-6.043h0ZM242.611,2771.8"/>
  <path class="cls-1" d="M251.627,2795.784c2.882.27,4.003,2.324,3.519,6.031-1.484-1.124-2.625-3.144-3.519-6.031h0ZM251.627,2795.784"/>
  <path class="cls-1" d="M257.369,2810.862c2.957.161,4.125,2.231,3.609,6.039-1.512-1.113-2.644-3.132-3.609-6.039h0ZM257.369,2810.862"/>
  <path class="cls-1" d="M266.732,2834.765c1.473,1.093,2.684,3.054,3.602,5.914-1.481-1.086-2.672-3.067-3.602-5.914h0ZM266.732,2834.765"/>
  <path class="cls-1" d="M275.302,2855.882c2.961.051,4.196,2.066,3.934,5.844-1.57-1.035-2.844-2.993-3.934-5.844h0ZM275.302,2855.882"/>
  <path class="cls-4" d="M401.795,1057.968c.285.703-.153,1.711-1.457,2.828-.333-.766.203-1.645,1.457-2.828h0ZM401.795,1057.968"/>
  <path class="cls-3" d="M960.619,2431.608c-.742-.023-1.395-.906-1.996-2.648.73.023,1.406.906,1.996,2.648h0ZM960.619,2431.608"/>
  <path class="cls-2" d="M839.503,2366.333c3.246,9.434,6.644,18.816,9.715,28.305,23.14,71.511,52.5,140.32,88.195,206.511,32.828,60.875,70.191,118.723,112.687,173.246,100.547,129.004,222.192,233.633,364.45,314.243,76.371,43.273,156.539,77.839,240.367,103.992,71.758,22.387,144.879,38.082,219.461,47.445,72.656,9.121,145.543,11.352,218.535,7.406,104.789-5.66,207.23-24.75,307.184-56.961,116.429-37.519,224.765-91.355,325.503-160.679,14.805-10.184,29.926-20.016,45.524-28.914,62.766-35.805,130.57-52.641,202.641-49.864,124.839,4.817,226.164,56.731,303,155.379,36.523,46.891,60.253,99.926,72.335,158.133,13.258,63.871,10.95,127.188-7.269,189.828-26.426,90.867-79.328,162.594-156.723,216.707-68.914,48.18-140.785,91.395-214.886,131.117-106.036,56.844-216.368,103.333-330.727,140.454-88.066,28.589-177.77,50.671-268.918,66.785-47.246,8.355-94.781,14.715-142.535,19.566-77.672,7.891-155.512,11.832-233.563,10.262-66.488-1.34-132.804-5.449-198.918-13.113-105.472-12.223-209.332-32.49-311.617-60.832-148.453-41.137-290.551-98.11-426.133-171.336-119.171-64.364-230.656-140.036-334.425-227.024-76.36-64.008-147.442-133.472-213.465-208.137-72.024-81.441-136.692-168.367-195.074-260.019-19.883-31.215-38.028-63.426-55.422-96.082-17.621-33.086-36.414-65.578-53-99.168-17.028-34.473-32.008-69.957-47.903-106.953-.054-4.813-1.289-6.828-4.066-7.774-1.609-3.812-3.219-7.625-4.844-13.32-1.226-3.848-2.437-5.809-3.644-7.773-1.926-4.672-3.848-9.344-5.703-15.957.199-4.844-.969-6.914-3.758-7.957-.731-1.801-1.457-3.602-2.117-7.231.21-4.641-.911-6.695-3.547-7.836-1.836-4.699-3.672-9.402-5.461-16.035.168-4.738-.957-6.801-3.586-7.953-2.063-5.617-4.121-11.234-6.004-18.938-.531-5.777-1.246-9.468-1.879-14.586,1.184-33.796-2.395-66.308,3.102-98.566,2.25-13.203,3.492-26.582,5.917-39.75,9.196-49.914,25.899-96.984,51.532-141.074,15.926-27.406,36.332-51.039,56.734-74.856,1.293-1.511,2.734-2.933,4.274-4.199,9.984-8.223,20.32-16.043,29.968-24.641,19.211-17.117,41.551-29.453,64.164-40.894,29.832-15.098,61.387-26.16,94.325-32.629,20.496-4.027,41.109-7.398,62.109-7.41,6.965-.008,13.894.266,20.766-2,3.117-1.027,6.902-.285,10.351.008,6.422.539,12.867,2.191,19.219,1.847,15.101-.816,30.082,1.168,44.551,4.086,24.793,5,49.379,11.055,73.484,19.43,32.375,11.246,61.957,27.414,90.68,45.523,11.375,7.176,21.433,16.165,31.797,24.774,17.347,14.402,33.398,29.867,47.41,47.551,3.644,4.597,8.656,8.113,13.039,12.129,0,0,.574.589.39,1.839.469,2.133,1.122,3.016,1.778,3.895h0ZM839.503,2366.333"/>
  <path class="cls-4" d="M282.561,989.751c.637-2.332.793-4.945,1.977-6.953,34.578-58.528,72.062-115.153,112.594-169.715,19.05-25.645,38.621-50.918,58.582-75.859,13.715-17.137,28.605-33.332,42.808-50.086,46.618-54.977,98.137-105.223,150.149-154.942,19.461-18.601,40.297-35.793,60.902-53.148,21.375-18.004,43.133-35.555,64.899-53.082,38.543-31.028,78.668-59.899,120.082-86.953,28.839-18.844,57.742-37.618,87.082-55.668,17.851-10.981,36.464-20.754,54.945-30.684,47.086-25.301,93.723-51.531,141.586-75.273,62.195-30.848,125.785-58.692,191.203-82.258,56.414-20.324,113.551-38.196,171.941-51.758,35.438-8.23,71.118-15.613,106.934-21.992,25.98-4.625,52.383-6.875,78.57-10.379,22.758-3.047,45.625-4.629,68.493-6.477,15.949-1.289,31.871-1.902,47.824-2.582,8.461-.363,16.902-1.984,25.347-1.941,57.004.289,112.098,9.98,164.672,32.953,35.543,15.535,67.707,36.039,97.524,60.754,27.539,22.824,51.078,49.129,71.257,78.457,14.168,20.594,26.106,42.492,36.27,65.418,14.277,32.199,23.629,65.855,28.688,100.484,4.472,30.602,5.96,61.446,2.183,92.543-2.469,20.348-5.098,40.574-9.973,60.453-13.781,56.211-39.375,106.711-75.531,151.68-41.484,51.59-93.207,90.145-154.074,115.949-32.695,13.864-66.766,23.282-102.313,27.34-13.941,1.594-27.851,1.945-41.777,2.899-49.762,3.406-99.281,8.039-148.144,19.293-51.782,11.921-101.836,28.527-150.614,49.308-33.101,14.102-65.652,29.402-97.488,46.156-57.93,30.489-115.008,62.422-168.469,100.426-30.531,21.703-60.16,44.512-88.929,68.531-41.911,34.985-80.618,73.278-117.703,113.153-28.895,31.062-55.434,64.262-80.551,98.504-25.707,35.05-49.973,71.078-71.594,108.828-.738,1.293-1.762,2.422-3.695,2.894.3-9.574,1.234-18.504,3.097-27.23,2.793-13.067,8.106-60.727,7.821-72.602-.575-23.894.726-47.746-2.375-71.687-2.301-17.781-4.664-35.477-8.512-52.961-7.539-34.274-19.992-66.668-36.617-97.61-14.239-26.5-31.121-51.097-51.207-73.351-15.367-17.027-31.703-33.285-50.09-47.106-33.949-25.515-69.285-48.691-109.051-64.578-42.621-17.019-86.598-25.765-132.543-25.812-17.547-.02-34.969,1.332-52.062,4.125-20.567,3.359-40.977,8.398-60.727,15.414-29.66,10.539-58.301,23.226-85.449,39.351-27.918,16.583-54.629,34.762-79.379,55.793-5.66,4.809-11.113,9.942-18.563,11.981h0ZM282.561,989.751"/>
  <path class="cls-3" d="M282.237,990.161c7.774-2.449,13.227-7.582,18.887-12.391,24.75-21.031,51.461-39.21,79.379-55.793,27.148-16.125,55.789-28.812,85.449-39.351,19.75-7.016,40.16-12.055,60.727-15.414,17.093-2.793,34.515-4.145,52.062-4.125,45.945.047,89.922,8.793,132.543,25.812,39.766,15.887,75.102,39.063,109.051,64.578,18.387,13.821,34.723,30.079,50.09,47.106,20.086,22.254,36.968,46.851,51.207,73.351,16.625,30.942,29.078,63.336,36.617,97.61,3.848,17.484,6.211,35.18,8.512,52.961,3.101,23.941,1.8,47.793,2.375,71.687.285,11.875-5.028,59.535-7.821,72.602-1.863,8.726-2.797,17.656-3.965,27.781-2.136,6.254-4.136,11.399-6.816,16.164-40.066,71.227-72.848,145.656-98.25,223.317-22.414,68.527-38.508,138.5-49.051,209.855-12.254,82.938-15.008,166.262-10.332,249.758,4.789,85.543,19.078,169.699,42.293,252.262.946,3.359,1.614,6.793,2.278,11.429-4.52-2.777-9.532-6.293-13.176-10.89-14.012-17.684-30.063-33.149-47.41-47.551-10.364-8.609-20.422-17.598-31.797-24.774-28.723-18.109-58.305-34.277-90.68-45.523-24.105-8.375-48.691-14.43-73.484-19.43-14.469-2.918-29.45-4.902-44.551-4.086-6.352.344-12.797-1.308-19.219-1.847-3.449-.293-7.234-1.035-10.351-.008-6.872,2.266-13.801,1.992-20.766,2-21,.012-41.613,3.383-62.109,7.41-32.938,6.469-64.493,17.531-94.325,32.629-22.613,11.441-44.953,23.777-64.164,40.894-9.648,8.598-19.984,16.418-29.968,24.641-1.54,1.266-2.981,2.688-4.274,4.199-20.402,23.817-40.808,47.45-56.734,74.856-25.633,44.09-42.336,91.16-51.532,141.074-2.425,13.168-3.667,26.547-5.917,39.75-5.497,32.258-1.918,64.77-3.875,98.504-1.36,1.391-1.879,1.422-2.395,1.449-9.5-28.937-19.633-57.687-28.371-86.855-19.074-63.672-34.688-128.215-46.953-193.559-8.289-44.183-15.418-88.539-20.711-133.199-6.176-52.11-10.344-104.34-12.719-156.774-2.238-49.476-2.656-98.941-.914-148.375,2.027-57.41,6.32-114.675,13.129-171.781,12.32-103.359,32.41-205.125,60.191-305.406,39.09-141.102,92.625-276.488,161.008-405.957,13.293-25.172,27.594-49.813,43.098-75.449,2.109-1.754,2.547-2.762,2.984-3.77,0,0,.422-.957.75-1.371h0ZM282.237,990.161"/>
</svg>